<?xml version="1.0" standalone="no"?>
<!DOCTYPE svg PUBLIC "-//W3C//DTD SVG 20010904//EN"
 "http://www.w3.org/TR/2001/REC-SVG-20010904/DTD/svg10.dtd">
<svg version="1.0" xmlns="http://www.w3.org/2000/svg"
 width="500.000000pt" height="500.000000pt" viewBox="0 0 500.000000 500.000000"
 preserveAspectRatio="xMidYMid meet">

<g transform="translate(0.000000,500.000000) scale(0.100000,-0.100000)"
fill="#000000" stroke="none">
<path d="M2316 4866 c-156 -124 -171 -133 -195 -124 -124 48 -375 138 -385
138 -7 0 -67 -81 -132 -181 l-119 -181 -227 7 -227 6 -20 -68 c-11 -37 -38
-133 -60 -212 -22 -79 -42 -145 -43 -146 -2 -2 -68 -22 -148 -45 -80 -23 -176
-50 -213 -61 l-68 -20 7 -223 7 -223 -182 -124 c-99 -68 -181 -129 -181 -135
0 -10 78 -227 138 -385 10 -24 -1 -40 -129 -202 l-139 -177 139 -175 139 -175
-75 -202 c-40 -110 -76 -205 -79 -209 -3 -5 79 -64 181 -131 l187 -123 -7
-227 -7 -227 39 -10 c189 -52 385 -109 389 -114 3 -2 23 -69 45 -148 22 -79
49 -175 60 -213 l20 -68 177 6 c97 4 197 9 222 12 l46 5 126 -189 127 -190
208 78 c114 42 213 74 218 70 6 -4 85 -66 177 -139 l168 -131 176 138 176 139
201 -74 c110 -41 204 -76 208 -79 5 -3 66 81 136 186 l127 191 46 -5 c25 -3
125 -8 222 -12 l176 -6 21 68 c11 38 38 134 60 213 22 79 42 145 44 147 4 4
416 124 425 124 2 0 1 102 -3 227 l-7 228 187 123 c102 67 184 126 181 131 -3
4 -39 99 -79 209 l-75 202 139 175 139 175 -131 168 c-73 92 -135 172 -139
177 -4 6 27 103 70 218 l78 207 -122 84 c-66 45 -150 102 -185 126 l-63 42 3
225 4 226 -210 59 c-115 32 -211 60 -213 62 -1 2 -21 68 -43 147 -22 79 -49
175 -60 212 l-20 69 -227 -7 -227 -7 -119 181 c-65 100 -125 181 -132 181 -10
0 -261 -90 -385 -138 -24 -9 -39 0 -195 124 -93 73 -176 134 -184 134 -8 0
-91 -61 -184 -134z m360 -57 l166 -132 196 72 c108 40 201 73 205 74 5 1 63
-79 130 -177 l122 -179 140 3 c77 2 176 4 219 4 l79 1 58 -203 c31 -112 59
-206 62 -208 3 -3 96 -31 208 -62 l204 -58 -3 -154 c-1 -85 -5 -183 -8 -216
l-5 -62 180 -123 c100 -67 181 -127 181 -132 0 -5 -31 -94 -70 -198 -38 -104
-70 -194 -70 -200 0 -6 56 -83 126 -170 69 -88 127 -165 130 -172 2 -7 -54
-86 -126 -177 -71 -91 -130 -170 -130 -177 0 -6 32 -97 70 -201 39 -104 70
-194 70 -199 0 -8 -207 -151 -351 -243 -4 -3 -4 -102 2 -219 5 -118 8 -216 6
-218 -2 -2 -91 -28 -198 -58 -107 -30 -200 -59 -208 -63 -8 -4 -40 -99 -71
-210 -31 -111 -59 -204 -62 -207 -3 -3 -101 -1 -218 5 -123 6 -216 6 -219 1
-80 -124 -236 -351 -242 -351 -4 0 -97 33 -207 73 l-198 73 -170 -133 c-93
-73 -171 -133 -174 -133 -3 0 -81 60 -174 133 l-169 133 -184 -68 c-101 -37
-194 -70 -206 -73 -21 -6 -36 13 -143 175 l-119 181 -95 -6 c-52 -3 -151 -6
-219 -8 l-123 -2 -58 203 c-31 111 -60 205 -63 208 -3 4 -96 32 -207 64 -111
32 -203 60 -206 63 -2 2 -1 98 4 213 5 116 5 214 1 220 -5 6 -86 62 -179 124
-94 62 -170 118 -170 125 0 6 31 96 70 200 38 104 70 193 70 199 0 6 -59 85
-130 175 -72 90 -130 168 -130 172 0 5 58 83 130 173 72 90 130 168 130 174 0
5 -31 94 -70 198 -38 103 -70 193 -70 201 0 7 81 67 181 133 l180 121 -5 42
c-3 23 -7 121 -8 216 l-3 175 205 59 c113 32 206 60 208 62 2 1 29 94 61 206
l57 204 220 -4 219 -4 122 180 122 180 202 -74 c111 -41 207 -72 213 -69 6 3
81 61 166 130 85 68 161 125 168 125 7 1 87 -58 178 -130z"/>
<path d="M1280 2995 l0 -115 35 0 35 0 0 -310 0 -310 -35 0 -35 0 0 -115 0
-115 430 0 430 0 0 180 0 181 -137 -3 -138 -3 -3 -62 -3 -63 -59 0 -60 0 0
310 0 310 65 0 65 0 0 115 0 115 -295 0 -295 0 0 -115z"/>
<path d="M2190 2995 l0 -115 35 0 35 0 0 -310 0 -310 -35 0 -35 0 0 -115 0
-115 225 0 225 0 0 115 0 115 -30 0 -30 0 1 228 0 227 117 -340 118 -340 105
-3 105 -3 113 346 c63 190 115 345 117 345 2 0 4 -103 4 -230 l0 -230 -35 0
-35 0 0 -115 0 -115 265 0 265 0 0 115 0 115 -35 0 -35 0 0 310 0 310 35 0 35
0 0 115 0 115 -308 0 -307 0 -64 -202 c-36 -112 -68 -207 -72 -211 -4 -5 -38
85 -76 200 l-70 208 -316 3 -317 2 0 -115z"/>
</g>
</svg>
